<?xml version="1.0" standalone="no"?>
<!DOCTYPE svg PUBLIC "-//W3C//DTD SVG 20010904//EN"
 "http://www.w3.org/TR/2001/REC-SVG-20010904/DTD/svg10.dtd">
<svg version="1.0" xmlns="http://www.w3.org/2000/svg"
 width="476.000000pt" height="229.000000pt" viewBox="0 0 476.000000 229.000000"
 preserveAspectRatio="xMidYMid meet">

<g transform="translate(0.000000,229.000000) scale(0.100000,-0.100000)"
fill="#000000" stroke="none">
<path d="M780 1205 l0 -655 23 -5 c42 -10 1872 -1 1870 10 -2 7 -325 11 -938
13 l-935 2 2 633 3 632 1700 0 1700 0 3 -507 c1 -327 6 -508 12 -508 7 0 10
183 10 520 l0 520 -1725 0 -1725 0 0 -655z"/>
<path d="M1607 1526 c-150 -56 -218 -218 -148 -353 39 -77 143 -143 226 -143
83 0 186 65 228 144 30 57 30 165 0 221 -59 113 -197 172 -306 131z m174 -68
c115 -64 132 -228 33 -320 -37 -34 -74 -48 -129 -48 -81 0 -141 39 -176 115
-80 173 106 346 272 253z"/>
<path d="M3725 1524 c-99 -35 -165 -130 -165 -237 0 -146 105 -251 250 -251
145 0 250 105 250 251 0 175 -171 295 -335 237z m176 -60 c32 -16 77 -68 91
-103 26 -66 1 -179 -48 -222 -77 -67 -213 -64 -275 7 -47 53 -65 151 -41 215
13 32 58 86 86 101 54 29 133 30 187 2z"/>
<path d="M950 1284 l0 -247 113 5 c104 4 118 7 168 35 72 40 111 102 117 184
6 84 -13 145 -63 195 -56 56 -114 74 -237 74 l-98 0 0 -246z m243 171 c62 -29
91 -76 95 -155 8 -129 -58 -196 -203 -207 l-75 -6 0 198 0 198 73 -5 c39 -3
89 -13 110 -23z"/>
<path d="M2044 1517 c-2 -7 -3 -116 -2 -242 l3 -230 28 -3 27 -3 0 105 0 106
29 0 c25 0 42 -15 117 -105 80 -97 90 -105 122 -105 32 0 34 1 20 18 -85 100
-160 193 -157 195 2 1 22 11 43 22 100 51 97 186 -5 237 -43 22 -217 26 -225
5z m222 -70 c65 -75 -7 -157 -127 -145 l-34 3 -3 89 -3 88 72 -4 c63 -3 74 -7
95 -31z"/>
<path d="M2617 1523 c-5 -8 -139 -336 -178 -435 l-19 -48 29 0 c26 0 31 6 54
63 l25 62 112 0 112 0 25 -62 c23 -57 28 -63 54 -63 16 0 29 1 29 3 0 1 -44
110 -98 242 -81 201 -101 241 -119 243 -11 2 -23 0 -26 -5z m66 -186 c20 -51
37 -96 37 -100 0 -4 -36 -7 -80 -7 -44 0 -80 3 -80 8 0 16 72 192 79 192 4 0
24 -42 44 -93z"/>
<path d="M2980 1517 c0 -8 -11 -103 -25 -213 -32 -257 -32 -264 0 -264 17 0
25 6 25 18 1 35 38 323 42 328 3 2 40 -75 83 -171 56 -124 83 -175 94 -173 8
2 47 75 89 171 42 92 78 167 82 167 4 0 15 -75 26 -167 l19 -168 28 -3 c15 -2
27 1 27 7 0 18 -51 435 -56 459 -2 13 -12 22 -23 22 -14 0 -37 -43 -102 -190
-46 -104 -87 -190 -90 -190 -4 0 -44 85 -90 190 -73 165 -87 190 -106 190 -13
0 -23 -6 -23 -13z"/>
</g>
</svg>
